<?xml version="1.0" encoding="utf-8"?>
<!-- Generator: Adobe Illustrator 24.0.0, SVG Export Plug-In . SVG Version: 6.00 Build 0)  -->
<svg version="1.1" id="Layer_1" xmlns="http://www.w3.org/2000/svg" xmlns:xlink="http://www.w3.org/1999/xlink" x="0px" y="0px"
	 viewBox="0 0 100.04 27.21" style="enable-background:new 0 0 100.04 27.21;" xml:space="preserve">
<style type="text/css">
	.st0{fill:#522B79;}
	.st1{fill:#ED3284;}
</style>
<g>
	<path class="st0" d="M1.79,10.43c2.21-2.06,5.7-1.9,7.84,0.24l2.31,2.31l5.38,5.38c1.37,1.37,3.58,1.39,4.98,0.05
		c-0.02,0.02-0.03,0.04-0.05,0.06l-2.41,2.41l0,0l-5.19,5.19c-1.49,1.49-3.91,1.49-5.4,0l-5.19-5.19l0,0l-2.41-2.41
		C-0.58,16.24-0.53,12.6,1.79,10.43z"/>
	<path class="st1" d="M14.36,10.57c2.18-2.18,5.71-2.18,7.89,0v0c2.16,2.16,2.18,5.65,0.05,7.84c-1.39,1.34-3.61,1.32-4.98-0.05
		l-5.38-5.38L14.36,10.57z"/>
	<path class="st1" d="M17.2,0.05c1.88,0,3.4,1.52,3.4,3.4v4.32h-2.8c-1.88,0-3.4-1.52-3.4-3.4V0.05H17.2z"/>
	<path class="st0" d="M6.39,0.05l3.1,0v4.62c0,1.71-1.39,3.1-3.1,3.1c-1.71,0-3.1-1.39-3.1-3.1V3.15C3.29,1.44,4.68,0.05,6.39,0.05z
		"/>
	<path class="st1" d="M76.74,11.97l-0.25-0.41c-0.06-0.09-0.13-0.19-0.2-0.28l-0.08-0.11c-0.06-0.08-0.14-0.16-0.21-0.24
		c-0.04-0.04-0.07-0.08-0.11-0.12c-0.45-0.46-0.98-0.84-1.55-1.08c-0.57-0.25-1.2-0.39-1.82-0.4l-0.05,0
		c-0.59,0-1.19,0.12-1.74,0.34c-0.16,0.06-0.33,0.15-0.52,0.26L70.09,10l0-0.14l0-0.16c-0.01-0.57-0.48-1.03-1.05-1.03h-8.97v0.97
		h7.99h0.32l-0.28,0.15l-0.37,0.2c-0.31,0.17-0.62,0.34-0.94,0.5c-0.52,0.28-1.04,0.56-1.57,0.85c-1.64,0.9-3.33,1.84-5.03,2.8
		l-0.1,0.05l0,0.11l-0.02,3.51l0,0.14l0.13,0.05c0.58,0.23,1.16,0.47,1.73,0.71c1.03,0.42,2.1,0.86,3.16,1.28l2.48,0.98
		c0.23,0.09,0.48,0.14,0.72,0.14c0.52,0,1.03-0.21,1.39-0.59c0.37-0.37,0.57-0.87,0.57-1.39v-7.78v-0.05l0.04-0.02l0.26-0.14
		c0.2-0.09,0.4-0.18,0.63-0.24c0.3-0.09,0.61-0.13,0.92-0.13c0.55,0,1.08,0.14,1.53,0.4c0.36,0.21,0.67,0.49,0.9,0.82
		c0.02,0.03,0.04,0.06,0.06,0.09c0.04,0.05,0.07,0.11,0.1,0.17c0.02,0.04,0.04,0.07,0.06,0.11c0.03,0.05,0.06,0.1,0.08,0.16
		l0.11,0.28l0.03,0.12c0.01,0.05,0.03,0.11,0.04,0.16c0.08,0.33,0.1,0.69,0.06,1.1c-0.05,0.41-0.14,0.77-0.29,1.1l-0.12,0.25
		l-0.04-0.28c-0.11-0.79-0.61-1.43-1.32-1.66c-0.19-0.06-0.38-0.09-0.57-0.09c-0.88,0-1.7,0.63-2,1.54c-0.28,0.86-0.04,1.8,0.6,2.34
		c0.07,0.08,0.14,0.14,0.2,0.19c0.25,0.21,0.52,0.37,0.82,0.48c0.31,0.11,0.63,0.17,0.97,0.18c0.35,0,0.68-0.05,1-0.15
		c0.31-0.1,0.61-0.24,0.89-0.43c0.08-0.05,0.14-0.09,0.21-0.14c0.04-0.03,0.09-0.07,0.13-0.1l0.06-0.05l0.05-0.04
		c0.05-0.04,0.09-0.08,0.14-0.12l0.18-0.17c0.21-0.21,0.4-0.45,0.61-0.78c0.34-0.55,0.56-1.19,0.63-1.86
		c0.07-0.65-0.02-1.33-0.26-1.97C76.88,12.28,76.81,12.13,76.74,11.97z M68.15,10.44v7.52v0.13l-0.12-0.05l-0.64-0.28l-1.22-0.51
		c-0.64-0.28-1.31-0.53-1.95-0.78l-0.5-0.19c-0.31-0.12-0.61-0.23-0.9-0.34l-0.05-0.02l0-0.05c-0.01-0.16-0.03-0.32-0.04-0.48
		l0-0.04l0.03-0.03l0.02-0.02l0.44-0.4c0.29-0.26,0.59-0.54,0.91-0.85l0.12-0.12c0.27-0.26,0.55-0.53,0.83-0.81l1.03-1.01l0.18-0.17
		c0.31-0.29,0.62-0.59,0.95-0.89c0.24-0.22,0.49-0.44,0.75-0.66l0.14-0.12V10.44z"/>
	<polygon class="st1" points="58.49,4.59 56.99,8.69 59.06,7.64 60.14,4.59 	"/>
	<path class="st1" d="M54.91,10.86l-0.02,0.01h-0.02h-0.09h-0.16l0,0l-0.08,0l-0.08,0c-0.04,0-0.07,0-0.11,0
		c-0.08-0.01-0.15-0.01-0.22-0.02c-0.16-0.01-0.33-0.03-0.49-0.07c-0.04-0.01-0.08-0.02-0.12-0.02c-0.07-0.01-0.15-0.03-0.23-0.05
		l-0.32-0.1c-0.2-0.07-0.41-0.16-0.61-0.27c-0.77-0.41-1.33-1.11-1.54-1.92c-0.11-0.4-0.13-0.82-0.06-1.21
		c0.01-0.04,0.02-0.07,0.02-0.11c0.01-0.06,0.02-0.13,0.05-0.19c0.01-0.04,0.02-0.08,0.04-0.12c0.02-0.06,0.03-0.11,0.05-0.17
		l0.12-0.28l0.06-0.11c0.03-0.05,0.05-0.09,0.08-0.14c0.18-0.29,0.42-0.56,0.74-0.82c0.32-0.25,0.65-0.45,0.98-0.57l0.26-0.1
		l-0.17,0.22c-0.48,0.63-0.58,1.44-0.24,2.1c0.33,0.65,1.02,1.05,1.79,1.05c0.36,0,0.72-0.09,1.05-0.25
		c0.81-0.41,1.3-1.24,1.23-2.08c0-0.11,0-0.19-0.01-0.28c-0.03-0.32-0.11-0.63-0.24-0.92c-0.14-0.29-0.33-0.57-0.56-0.81
		c-0.24-0.24-0.52-0.45-0.81-0.6c-0.29-0.15-0.6-0.26-0.93-0.33c-0.09-0.02-0.16-0.04-0.24-0.05c-0.05-0.01-0.11-0.01-0.16-0.02
		l-0.08-0.01l-0.07-0.01c-0.06-0.01-0.12-0.01-0.18-0.02l-0.25,0c-0.29,0-0.6,0.04-0.98,0.12c-0.63,0.15-1.24,0.45-1.76,0.87
		c-0.51,0.41-0.93,0.96-1.21,1.58c-0.06,0.15-0.12,0.3-0.17,0.47l-0.12,0.47c-0.02,0.11-0.04,0.22-0.05,0.34l-0.02,0.14
		c-0.02,0.1-0.02,0.21-0.02,0.32c0,0.05,0,0.11-0.01,0.16c-0.01,0.44,0.05,0.91,0.17,1.37c0.02,0.06,0.04,0.12,0.06,0.18l0.02,0.06
		l0.02,0.07c0.02,0.06,0.04,0.12,0.06,0.18c0.22,0.58,0.57,1.13,1.01,1.57c0.42,0.43,0.94,0.79,1.51,1.03
		c0.24,0.1,0.51,0.19,0.85,0.27l0.2,0.03l0.23,0.04l-0.2,0.11c-1.44,0.79-2.72,1.51-3.9,2.18l-0.1,0.05l0,0.11l-0.02,3.51l0,0.14
		l0.13,0.05c0.58,0.23,1.15,0.47,1.73,0.71c1.03,0.42,2.1,0.86,3.16,1.28l2.48,0.98c0.23,0.09,0.48,0.14,0.72,0.14
		c0.52,0,1.03-0.21,1.39-0.59c0.37-0.37,0.57-0.87,0.57-1.39V8.62l-0.83,0.46l-1.7,0.92c-0.34,0.18-0.68,0.37-1.02,0.55L54.91,10.86
		z M56.82,10.37l0.14-0.12v0.18v7.52v0.13l-0.12-0.05l-0.64-0.28l-1.22-0.51c-0.64-0.28-1.31-0.53-1.95-0.78l-0.5-0.19
		c-0.31-0.12-0.61-0.23-0.9-0.34l-0.05-0.02l0-0.05c-0.01-0.16-0.03-0.32-0.04-0.48l0-0.04l0.03-0.03l0.02-0.02l0.44-0.4
		c0.28-0.26,0.59-0.54,0.91-0.85l0.13-0.12c0.27-0.26,0.54-0.53,0.83-0.81l1.03-1.01l0.18-0.17c0.31-0.29,0.62-0.59,0.96-0.89
		C56.31,10.82,56.56,10.6,56.82,10.37z"/>
	<path class="st0" d="M98.98,8.67h-0.92l-5.81,0c-0.07,0.08-0.15,0.16-0.22,0.24c-0.26,0.27-0.56,0.52-0.89,0.73h6.43
		c0.32,0,0.58,0.26,0.58,0.58v3.32v0.2l-0.14-0.15c-0.32-0.33-0.67-0.6-1.05-0.81c-0.54-0.3-1.16-0.51-1.8-0.6
		c-0.05,0-0.1-0.01-0.16-0.02c-0.1-0.01-0.21-0.02-0.31-0.02l-0.02,0l-0.12,0l-0.12,0c-0.08,0-0.15,0-0.23,0.01l-0.48,0.05
		c-0.17,0.03-0.33,0.06-0.49,0.1c-0.65,0.19-1.25,0.52-1.74,0.96c-0.5,0.45-0.88,1.01-1.12,1.62c-0.13,0.36-0.22,0.66-0.26,0.95
		l-0.03,0.25c0,0.06-0.01,0.12-0.01,0.18l0,0.07l0,0.08c0,0.05-0.01,0.11,0,0.16c0,0.08,0.01,0.16,0.01,0.24
		c0.03,0.35,0.09,0.67,0.19,0.98c0.11,0.31,0.27,0.61,0.47,0.89c0.21,0.26,0.45,0.49,0.72,0.67c0.26,0.17,0.55,0.29,0.87,0.37
		c0.08,0.02,0.16,0.03,0.26,0.04c0.15,0.04,0.3,0.05,0.45,0.05c0.7,0,1.37-0.36,1.79-0.96c0.34-0.47,0.48-1.04,0.41-1.6
		c-0.07-0.55-0.35-1.02-0.78-1.33c-0.32-0.22-0.69-0.34-1.09-0.34c-0.35,0-0.71,0.09-1.03,0.27l-0.24,0.14l0.13-0.25
		c0.17-0.31,0.41-0.61,0.7-0.89c0.31-0.28,0.61-0.48,0.92-0.61c0.05-0.02,0.1-0.04,0.15-0.06l0.1-0.04l0.3-0.08
		c0.06-0.01,0.12-0.02,0.18-0.03c0.04-0.01,0.08-0.01,0.12-0.02c0.07-0.01,0.13-0.01,0.2-0.02c0.04,0,0.07,0,0.11-0.01
		c0.03,0,0.05,0,0.08,0c0.38,0,0.77,0.08,1.12,0.23c0.77,0.33,1.38,0.99,1.68,1.81c0.09,0.21,0.14,0.43,0.18,0.64l0.05,0.34
		c0.01,0.05,0.01,0.11,0.02,0.16l0,0.76v0.52v1.68c0,0.54,0.44,0.99,0.99,0.99h0.88V9.7C100.01,9.13,99.55,8.67,98.98,8.67z"/>
	<path class="st0" d="M92.44,6.75c0.22-0.58,0.34-1.22,0.33-1.87c0-0.05-0.01-0.1-0.01-0.16c0-0.1-0.01-0.21-0.02-0.32l-0.02-0.14
		c-0.02-0.11-0.03-0.23-0.06-0.34l-0.12-0.47C92.48,3.3,92.43,3.15,92.37,3c-0.28-0.62-0.69-1.16-1.2-1.58
		C90.64,1,90.03,0.69,89.4,0.55c-0.37-0.08-0.68-0.12-0.98-0.12l-0.25,0c-0.06,0-0.12,0.01-0.18,0.02l-0.07,0.01l-0.08,0.01
		c-0.05,0.01-0.11,0.01-0.16,0.02c-0.08,0.01-0.16,0.03-0.23,0.05c-0.34,0.08-0.65,0.19-0.94,0.33c-0.29,0.15-0.57,0.35-0.81,0.6
		c-0.23,0.24-0.42,0.52-0.56,0.81c-0.13,0.28-0.21,0.59-0.24,0.92c-0.01,0.08-0.01,0.17,0,0.26c-0.07,0.85,0.42,1.68,1.23,2.09
		c0.33,0.17,0.69,0.25,1.05,0.25c0.78,0,1.46-0.4,1.79-1.05c0.34-0.66,0.24-1.47-0.24-2.1l-0.17-0.22l0.26,0.1
		c0.33,0.12,0.66,0.31,0.98,0.57c0.32,0.26,0.56,0.53,0.74,0.82C90.58,3.96,90.6,4,90.63,4.05l0.05,0.1l0.12,0.28
		c0.02,0.06,0.04,0.11,0.06,0.17c0.01,0.04,0.02,0.08,0.04,0.12c0.02,0.06,0.03,0.13,0.04,0.19c0.01,0.03,0.01,0.07,0.02,0.1
		c0.07,0.4,0.05,0.82-0.05,1.22c-0.21,0.81-0.78,1.51-1.55,1.93c-0.2,0.12-0.41,0.2-0.61,0.27l-0.33,0.1
		c-0.07,0.03-0.15,0.04-0.22,0.05c-0.04,0.01-0.08,0.01-0.12,0.02c-0.14,0.03-0.29,0.05-0.41,0.06l-0.51,0l-0.29,0h-0.38h-3.22
		h-0.25h-2.83l-1.95,0v1.04v0.01v0.61v0.62v0.75v0.29v2.02c0,0.44,0.17,0.86,0.46,1.14c0.28,0.27,0.65,0.41,1.03,0.41
		c0.27,0,0.53-0.07,0.76-0.21l0.02-0.01l0.02-0.01l1.55-0.78l0.89-0.45l0.33-0.17l0.89-0.45l0.12-0.06v0.13v1.39v0.05l-0.04,0.02
		l-0.46,0.25c-0.38,0.2-0.76,0.41-1.14,0.62c-1.17,0.64-2.37,1.31-3.58,1.99l-0.06,0.03l0,0.07l-0.01,2.5l0,0.08l0.08,0.03
		c0.41,0.17,0.82,0.33,1.23,0.5c0.74,0.3,1.5,0.61,2.25,0.91l1.77,0.7c0.16,0.06,0.33,0.1,0.51,0.1c0.36,0,0.72-0.15,0.98-0.41
		c0.26-0.26,0.4-0.61,0.4-0.98l-0.05-8.38c0-0.49-0.19-0.95-0.51-1.26c-0.3-0.28-0.69-0.44-1.1-0.45c-0.2,0-0.37,0.05-0.47,0.1
		l-1.04,0.52l-2.83,1.4l-0.12,0.06v-0.13v-1.28V11.7v-0.75v-0.62V9.72V9.64h0.08h2.83h0.25h3.22h0.38h0.29h0.08v0.08v10.32
		c0,0.6,0.49,1.08,1.08,1.08h0.78V9.66V9.6l0.06-0.02c0.26-0.06,0.46-0.13,0.65-0.2l0.04-0.01c0.02-0.01,0.04-0.02,0.07-0.03
		c0.47-0.2,0.9-0.47,1.29-0.82l0.05-0.04c0.06-0.05,0.12-0.1,0.17-0.16C91.87,7.88,92.21,7.33,92.44,6.75z M84.32,15.65v4.45v0.12
		l-0.11-0.05l-3.26-1.35l-0.12-0.05l0.1-0.09l0.02-0.01l0.32-0.29c0.2-0.18,0.42-0.38,0.65-0.61l0.09-0.09
		c0.19-0.19,0.39-0.38,0.59-0.58l0.74-0.72l0.13-0.12c0.22-0.21,0.44-0.42,0.68-0.63l0.03-0.03l0.03-0.02l0.14-0.12V15.65z"/>
	<path class="st1" d="M45.13,17.49l-0.01-0.03c0,0.64,0.06,1.93,0.46,3.26c0.6,1.98,1.71,3.3,3.3,3.95l0,0l0.01,0
		c0.28,0.09,0.57,0.16,0.86,0.2l0.13,0.01l0.14,0.01l0.24,0c0.06,0,0.12-0.01,0.18-0.02l0.07-0.01l0.08-0.01
		c0.05-0.01,0.11-0.01,0.16-0.02c0.08-0.01,0.16-0.03,0.23-0.05c0.34-0.08,0.65-0.19,0.94-0.33c0.29-0.15,0.57-0.35,0.81-0.6
		c0.23-0.24,0.42-0.52,0.56-0.81c0.05-0.1,0.09-0.21,0.13-0.35c0.08-0.23,0.12-0.45,0.12-0.68c0-0.04,0-0.08-0.01-0.12
		c-0.07-1.05-0.94-1.86-1.98-1.86c-1.09,0-1.98,0.89-1.98,1.98c0,0.2,0.03,0.4,0.09,0.6l0.01,0.03l0.01,0.03l0.09,0.27l-0.22-0.18
		c-4.03-3.23-1.98-10.24-0.89-13.15c-0.07-0.14-0.12-0.27-0.17-0.39C48.3,8.69,48.17,8.1,48.13,7.5c-1.98,3.14-2.99,6.35-3,9.55
		L45.13,17.49z"/>
	<polygon class="st1" points="43.07,8.67 43.07,8.67 43.07,8.67 43.07,8.67 	"/>
	<path class="st1" d="M43.07,8.67L43.07,8.67C43.07,8.67,43.07,8.67,43.07,8.67c-0.52,0-0.93,0.42-0.93,0.93c0,0,0,0,0,0v5.07v2.61
		v0.21l-0.14-0.15l-1.11-1.21v0l-0.41-0.44l0.01-0.04l0.01-0.05c0.01-0.06,0.03-0.11,0.04-0.17c0.21-0.94,0.2-1.91-0.03-2.81
		c-0.14-0.53-0.29-0.95-0.48-1.32l-0.16-0.32c-0.04-0.07-0.09-0.14-0.13-0.22l-0.05-0.08c-0.02-0.03-0.04-0.06-0.06-0.1
		c-0.04-0.07-0.08-0.13-0.13-0.19c-0.07-0.09-0.14-0.18-0.21-0.26c-0.32-0.39-0.66-0.71-1.04-0.99c-0.38-0.28-0.82-0.49-1.29-0.65
		C36.53,8.36,36.1,8.3,35.68,8.3c-0.04,0-0.09,0-0.13,0c-0.44,0.02-0.89,0.12-1.33,0.29c-0.11,0.04-0.22,0.1-0.34,0.17
		c-1.13,0.46-1.88,1.63-1.88,2.93c0,1.72,1.29,3.13,2.87,3.13c1.07,0,2.04-0.64,2.54-1.68l0.12-0.25l0.03,0.28
		c0.06,0.5,0.03,1.04-0.09,1.6c-0.13,0.57-0.31,1.05-0.56,1.46c-0.04,0.07-0.08,0.13-0.13,0.19c-0.03,0.04-0.06,0.09-0.09,0.13
		l-0.28,0.33c-0.06,0.06-0.12,0.12-0.18,0.18c-0.04,0.04-0.08,0.08-0.13,0.12c-0.07,0.07-0.14,0.12-0.21,0.18
		c-0.04,0.03-0.08,0.06-0.12,0.09c-0.46,0.34-1,0.59-1.57,0.71c-0.28,0.06-0.57,0.09-0.86,0.09c-0.15,0-0.3-0.01-0.45-0.02
		c-0.75-0.08-1.48-0.35-2.1-0.78c-0.27-0.17-0.51-0.39-0.73-0.59l-0.34-0.36c-0.08-0.07-0.14-0.16-0.21-0.25
		c-0.03-0.05-0.07-0.09-0.11-0.14c-0.15-0.18-0.28-0.38-0.4-0.57c-0.05-0.08-0.11-0.17-0.16-0.25c-0.05-0.1-0.1-0.19-0.14-0.28
		c-0.11-0.2-0.22-0.42-0.29-0.64c-0.02-0.05-0.04-0.11-0.07-0.16c-0.04-0.1-0.09-0.2-0.12-0.31l-0.15-0.48
		c-0.03-0.11-0.05-0.22-0.07-0.32c-0.01-0.06-0.02-0.12-0.04-0.18l-0.05-0.25c-0.01-0.06-0.01-0.11-0.02-0.17l-0.01-0.09
		c-0.09-0.59-0.09-1.26,0-2.09l0.08-0.52l0.12-0.52c0.02-0.1,0.05-0.21,0.08-0.3h-0.68l-0.25,0.62l-0.17,0.56
		c-0.21,0.82-0.32,1.6-0.31,2.32c0,0.85,0.1,1.65,0.3,2.36c0.07,0.29,0.17,0.58,0.28,0.85c0.04,0.1,0.08,0.2,0.11,0.3
		c0.04,0.09,0.09,0.18,0.13,0.27c0.13,0.27,0.26,0.55,0.42,0.8c0.04,0.06,0.08,0.12,0.11,0.19c0.07,0.11,0.14,0.23,0.22,0.33
		l0.38,0.5c0.32,0.39,0.6,0.68,0.89,0.91c0.67,0.57,1.46,1,2.28,1.26c0.33,0.1,0.67,0.18,1.03,0.23c0.31,0.05,0.63,0.07,0.95,0.07
		c0.22,0,0.45-0.01,0.67-0.03c0.88-0.09,1.77-0.36,2.59-0.79c0.06-0.04,0.13-0.07,0.2-0.11c0.13-0.07,0.27-0.15,0.39-0.23l0.16-0.11
		c0.13-0.09,0.27-0.19,0.4-0.29l0.52-0.45c0.12-0.12,0.24-0.25,0.36-0.38l0.06-0.07l0.06,0.06l1.92,2.03
		c0.31,0.32,0.71,0.5,1.13,0.5c0.19,0,0.37-0.04,0.55-0.11c0.67-0.27,1.11-0.97,1.11-1.79v-4.09v-3.06v-1.44
		c0-0.29,0.24-0.53,0.53-0.53h1.33c0.15-0.33,0.31-0.65,0.48-0.97H43.07z"/>
</g>
</svg>
